<svg width="341" height="274" viewBox="0 0 341 274" fill="none" xmlns="http://www.w3.org/2000/svg">
<path d="M211.739 14.3185L275.687 36.6554L290.951 4.57194L306.712 23.2009L335.055 35.4534L328.709 72.4784L338.23 124.168L316.775 142.107L333.266 196.698L323.037 256.38L286.768 250.164L264.376 270.218C248.37 270.888 214.35 271.883 206.315 270.506C198.28 269.129 166.904 256.925 152.221 250.996L104.203 253.005L38.3908 231.487L4.20512 213.113L28.2809 189.935L14.2445 154.536L21.8214 110.327L18.5021 69.3706L45.3884 39.848L58.4938 13.652L83.6033 17.9555L107.175 7.77425L156.278 16.19L211.739 14.3185Z" fill="#D9D9D9" stroke="#828282" stroke-width="5" stroke-dasharray="10 10"/>
</svg>
